<?xml version="1.0" encoding="UTF-8"?>
<svg width="800" height="800" version="1.1" viewBox="0 0 800.00001 800.00001" xmlns="http://www.w3.org/2000/svg">
 <defs>
  <mask id="e" maskUnits="userSpaceOnUse">
   <circle cx="400" cy="652.36" r="400" color="#000000" color-rendering="auto" fill="#fff" fill-rule="evenodd" image-rendering="auto" shape-rendering="auto" solid-color="#000000" style="isolation:auto;mix-blend-mode:normal"/>
  </mask>
  <mask id="f" maskUnits="userSpaceOnUse">
   <circle cx="400" cy="400" r="400" color="#000000" color-rendering="auto" fill="#fff" fill-rule="evenodd" image-rendering="auto" shape-rendering="auto" solid-color="#000000" style="isolation:auto;mix-blend-mode:normal"/>
  </mask>
  <linearGradient id="d" x1="388.98" x2="119.84" y1="331.84" y2="600.98" gradientUnits="userSpaceOnUse">
   <stop offset="0"/>
   <stop stop-opacity="0" offset="1"/>
  </linearGradient>
 </defs>
 <g transform="translate(0 -252.36)">
  <circle cx="400" cy="652.36" r="400" color="#000000" color-rendering="auto" fill="#1c8adb" fill-rule="evenodd" image-rendering="auto" shape-rendering="auto" solid-color="#000000" style="isolation:auto;mix-blend-mode:normal"/>
  <path transform="translate(0 252.36)" d="m401.64 177.65c-36.286 0-65.795 9.9687-88.523 29.906l-303.57 303.42c23.691 109.69 80.793 183.95 167.34 226.98l241.51-241.51c0-29.044 6.6901-51.581 20.059-67.623l34.371-34.357c32.299-33.894 48.447-68.285 48.447-103.18 0-35.289-10.565-63.004-31.699-83.141-20.934-20.336-50.244-30.504-87.926-30.504zm-8.373 381.9c-10.766 0-18.941 3.0908-24.523 9.2715l-177.11 177.11 61.239 32.667 164.91-164.91c5.5825-5.9813 8.373-13.458 8.373-22.43s-2.7905-16.448-8.373-22.43c-5.5825-6.1806-13.757-9.2715-24.523-9.2715z" fill="url(#d)" mask="url(#f)" opacity=".42"/>
  <path d="m363.07 748.81q0.59813-35.589 8.0747-56.224 7.4766-20.635 30.504-45.757l39.177-40.374q25.121-28.411 25.121-61.009 0-31.402-16.448-49.046-16.448-17.944-47.85-17.944-30.504 0-49.046 16.149t-18.542 43.364h-55.327q0.59813-48.448 34.392-78.056 34.093-29.906 88.523-29.906 56.523 0 87.925 30.504 31.701 30.205 31.701 83.14 0 52.336-48.448 103.18l-32.598 32.299q-21.832 24.224-21.832 69.682h-55.327zm-2.3925 94.803q0-13.458 8.0747-22.43 8.3738-9.271 24.523-9.271t24.523 9.271q8.3738 8.9719 8.3738 22.43 0 13.458-8.3738 22.43-8.3738 8.6728-24.523 8.6728t-24.523-8.6728q-8.0747-8.9719-8.0747-22.43z" fill="#fff" mask="url(#e)"/>
 </g>
</svg>

